<?xml version="1.0" encoding="UTF-8"?>
<svg id="Laag_2" data-name="Laag 2" xmlns="http://www.w3.org/2000/svg" viewBox="0 0 232.06 87.87">
  <defs>
    <style>
      .cls-1 {
        fill: #fff;
      }

      .cls-2 {
        fill: none;
        stroke: #facb00;
        stroke-linecap: round;
        stroke-miterlimit: 10;
        stroke-width: 4.54px;
      }

      .cls-3 {
        fill: #facb00;
      }

      .cls-4 {
        fill: #703e90;
      }
    </style>
  </defs>
  <g id="Laag_1-2" data-name="Laag 1">
    <g>
      <rect class="cls-4" y="11.56" width="232.06" height="42.95"/>
      <path class="cls-2" d="M45.34,16.16s1.44-2.28,3.45-4.93c5.68-7.48,11.44-8.95,16.94-8.95,7.15,0,12.19,5.61,14.06,8.5,3.76,5.81,14.45,32.67,20.76,41.48,8.63,12.04,21.18,33.31,45.33,33.35,18.59.03,28.32-7.76,35.99-19.78"/>
      <g>
        <path class="cls-1" d="M8.71,20.39h8.61v18.17h9.49v7.23H8.71v-25.41Z"/>
        <path class="cls-1" d="M33.65,44.67c-2.1-1.11-3.75-2.67-4.96-4.67-1.21-2-1.82-4.3-1.82-6.89s.61-4.89,1.82-6.91c1.21-2.01,2.86-3.57,4.96-4.69,2.1-1.11,4.44-1.67,7.04-1.67s4.9.56,7,1.67c2.09,1.12,3.75,2.68,4.96,4.69,1.21,2.01,1.82,4.31,1.82,6.91s-.61,4.89-1.82,6.89-2.87,3.56-4.96,4.67c-2.1,1.12-4.43,1.67-7,1.67s-4.94-.56-7.04-1.67ZM44.28,36.86c.95-.92,1.42-2.17,1.42-3.75s-.47-2.82-1.42-3.75c-.95-.92-2.15-1.38-3.6-1.38s-2.69.46-3.64,1.38c-.95.92-1.42,2.17-1.42,3.75s.48,2.82,1.44,3.75c.96.92,2.16,1.38,3.62,1.38s2.65-.46,3.6-1.38Z"/>
        <path class="cls-1" d="M62.04,44.74c-2.12-1.05-3.75-2.58-4.89-4.58-1.14-2-1.71-4.36-1.71-7.07s.57-5.1,1.71-7.09c1.14-1.99,2.77-3.51,4.89-4.58,2.12-1.07,4.59-1.8,8.75-1.89,2.98-.06,5.46-.02,8.53.86v9.5c-1.04-.77-3.13-1.33-4.45-1.67s-2.85-.51-4.6-.51c-1.87,0-3.35.47-4.45,1.4-1.1.93-1.65,2.26-1.65,3.98,0,1.87.45,3.28,1.34,4.24.9.96,2.35,1.44,4.36,1.44.73,0,1.36-.1,1.89-.29v-2.4h-2.8v-4.94h10.36v14.65c-4.88.55-5.87.6-9.9.71-3.37.09-5.26-.69-7.38-1.74Z"/>
        <path class="cls-1" d="M116.39,44.65c-2.1-1.11-3.75-2.67-4.96-4.67-1.21-2-1.82-4.3-1.82-6.89s.61-4.89,1.82-6.91c1.21-2.01,2.86-3.57,4.96-4.69,2.1-1.11,4.44-1.67,7.04-1.67s4.9.56,7,1.67c2.09,1.12,3.75,2.68,4.96,4.69,1.21,2.01,1.82,4.31,1.82,6.91s-.61,4.89-1.82,6.89-2.87,3.56-4.96,4.67c-2.1,1.12-4.43,1.67-7,1.67s-4.94-.56-7.04-1.67ZM127.03,36.84c.95-.92,1.42-2.17,1.42-3.75s-.47-2.82-1.42-3.75c-.95-.92-2.15-1.38-3.6-1.38s-2.69.46-3.64,1.38c-.95.92-1.42,2.17-1.42,3.75s.48,2.82,1.44,3.75c.96.92,2.16,1.38,3.62,1.38s2.65-.46,3.6-1.38Z"/>
        <path class="cls-1" d="M143.94,27.6h-6.51v-7.23h21.63v7.23h-6.5v18.17h-8.61v-18.17Z"/>
        <path class="cls-1" d="M160.1,20.37h8.61v25.41h-8.61v-25.41Z"/>
        <path class="cls-1" d="M199.94,20.37h7.6l7.56,11.81v-11.81h8.25v25.41h-7.6l-7.56-11.85v11.85h-8.25v-25.41Z"/>
        <g>
          <polygon class="cls-1" points="80.92 20.37 80.46 20.37 80.46 45.78 88.42 45.78 88.42 36.47 80.92 20.37"/>
          <polygon class="cls-1" points="100.93 20.37 94.52 33.76 98.07 41.37 100.56 36.36 100.56 45.78 108.52 45.78 108.52 20.37 100.93 20.37"/>
        </g>
      </g>
      <path class="cls-3" d="M184.29,16.05c-9.58,0-17.14,6.21-17.14,16.72,0,9.58,12.64,28.79,16.9,28.81,4.26.02,17.44-19.05,17.49-28.63.05-9.58-6.92-16.9-17.25-16.9Z"/>
      <path class="cls-4 rondje" d="M177.26,44.65c-2.1-1.11-3.75-2.67-4.96-4.67s-1.82-4.3-1.82-6.89.61-4.9,1.82-6.91c1.21-2.01,2.86-3.57,4.96-4.69,2.1-1.11,4.44-1.67,7.04-1.67s4.9.56,7,1.67c2.09,1.12,3.75,2.68,4.96,4.69,1.21,2.01,1.82,4.31,1.82,6.91s-.61,4.89-1.82,6.89-2.87,3.56-4.96,4.67c-2.1,1.12-4.43,1.67-7,1.67s-4.94-.56-7.04-1.67ZM187.9,36.83c.95-.92,1.42-2.17,1.42-3.75s-.47-2.82-1.42-3.75c-.95-.92-2.15-1.38-3.6-1.38s-2.69.46-3.64,1.38c-.95.92-1.42,2.17-1.42,3.75s.48,2.82,1.44,3.75c.96.92,2.16,1.38,3.62,1.38s2.65-.46,3.6-1.38Z"/>
    </g>
  </g>
</svg>