<svg width="69" height="49" viewBox="0 0 69 49" fill="none" xmlns="http://www.w3.org/2000/svg">
<path d="M67.2743 18.7361C68.3507 19.7049 68.8889 20.9965 68.8889 22.3958V32.9444C68.8889 35.3125 67.2743 37.25 65.1215 37.8958C65.3368 38.5417 65.4444 39.1875 65.4444 39.8333C65.4444 44.6771 61.5694 48.4444 56.8333 48.4444C51.9896 48.4444 48.2222 44.6771 48.2222 39.8333C48.2222 39.2951 48.2222 38.7569 48.3299 38.1111H30.7847C30.8924 38.7569 31 39.2951 31 39.8333C31 44.6771 27.125 48.4444 22.3889 48.4444C19.4826 48.4444 17.0069 47.1528 15.5 45C13.8854 47.1528 11.4097 48.4444 8.61111 48.4444C3.76736 48.4444 0 44.6771 0 39.8333V5.38889C0 2.59028 2.26042 0.222223 5.16667 0.222223H46.5C49.2986 0.222223 51.6667 2.59028 51.6667 5.38889V10.5556H57.0486C58.4479 10.5556 59.7396 11.0938 60.7083 12.1701L67.2743 18.7361ZM57.0486 14L51.6667 14.1076V20.8889H64.691L58.3403 14.5382C58.0174 14.2153 57.5868 14 57.0486 14ZM8.61111 45C11.4097 45 13.7778 42.7396 13.7778 39.8333C13.7778 37.0347 11.4097 34.6667 8.61111 34.6667C5.70486 34.6667 3.44444 37.0347 3.44444 39.8333C3.44444 42.7396 5.70486 45 8.61111 45ZM22.3889 45C25.1875 45 27.5556 42.7396 27.5556 39.8333C27.5556 37.0347 25.1875 34.6667 22.3889 34.6667C19.4826 34.6667 17.2222 37.0347 17.2222 39.8333C17.2222 42.7396 19.4826 45 22.3889 45ZM48.2222 34.6667V5.38889C48.2222 4.52778 47.3611 3.66667 46.5 3.66667H5.16667C4.19792 3.66667 3.44444 4.52778 3.44444 5.38889V32.9444C4.73611 31.8681 6.56597 31.2222 8.50347 31.2222C11.4097 31.2222 13.8854 32.6215 15.3924 34.7743C17.0069 32.6215 19.4826 31.2222 22.2812 31.2222C25.1875 31.2222 27.6632 32.6215 29.1701 34.6667H48.2222ZM56.8333 45C59.6319 45 62 42.7396 62 39.8333C62 37.0347 59.6319 34.6667 56.8333 34.6667C53.9271 34.6667 51.6667 37.0347 51.6667 39.8333C51.6667 42.7396 53.9271 45 56.8333 45ZM65.4444 32.9444V24.3333H51.6667V33.0521C53.066 31.9757 54.7882 31.2222 56.8333 31.2222C59.6319 31.2222 62.1076 32.6215 63.7222 34.7743V34.6667C64.5833 34.6667 65.4444 33.9132 65.4444 32.9444Z" fill="#F8CA12"/>
</svg>
