<svg width="70" height="49" viewBox="0 0 70 49" fill="none" xmlns="http://www.w3.org/2000/svg">
<path d="M61.2778 20.8889C62.1389 20.8889 63 21.75 63 22.6111V37.4653C63 39.8333 61.3854 41.8785 59.0174 42.5243L37.4896 48.2292C36.7361 48.4444 35.9826 48.4444 35.3368 48.4444C34.691 48.4444 33.9375 48.4444 33.184 48.2292L11.6562 42.5243C9.39583 41.8785 7.88889 39.8333 7.88889 37.4653V22.6111C7.88889 21.75 8.64236 20.8889 9.61111 20.8889C10.4722 20.8889 11.3333 21.75 11.3333 22.6111V37.4653C11.3333 38.2188 11.7639 38.9722 12.5174 39.0799L33.7222 44.6771V20.8889C33.7222 19.9201 34.4757 19.1667 35.4444 19.1667C36.3056 19.1667 37.1667 19.9201 37.1667 20.8889V44.7847L58.2639 39.0799C59.0174 38.8646 59.5556 38.2188 59.5556 37.3576V22.6111C59.5556 21.6424 60.309 20.8889 61.2778 20.8889ZM69.6736 13.3542C69.8889 13.7847 69.8889 14.3229 69.6736 14.8611C69.4583 15.2917 69.0278 15.6146 68.4896 15.7222L46.1007 20.8889C45.9931 20.8889 45.8854 20.8889 45.7778 20.8889C45.2396 20.8889 44.7014 20.6736 44.3785 20.1354L35.4444 8.29514L26.4028 20.2431C26.0799 20.6736 25.5417 20.8889 25.1111 20.8889C24.8958 20.8889 24.7882 20.8889 24.6806 20.8889L2.29167 15.7222C1.75347 15.6146 1.32292 15.2917 1.10764 14.8611C0.892361 14.3229 0.892361 13.8924 1.10764 13.3542L6.27431 1.29861C6.59722 0.652778 7.24306 0.222223 7.99653 0.329861L35.4444 3.66667L62.7847 0.329861C63.5382 0.222223 64.184 0.652778 64.5069 1.29861L69.6736 13.3542ZM24.3576 17.3368L32.2153 6.78819L8.85764 3.88194L5.09028 12.816L24.3576 17.3368ZM46.4236 17.3368L65.691 12.816L61.9236 3.88194L38.566 6.78819L46.4236 17.3368Z" fill="#F8CA12"/>
</svg>
