<svg width="57" height="58" viewBox="0 0 57 58" fill="none" xmlns="http://www.w3.org/2000/svg">
<path d="M25.2187 42.5729C25.2187 42.5729 25.2187 42.5729 25.1111 42.5729C25.434 43.2188 25.3264 43.9722 24.7882 44.5104L14.9931 54.3056C13.7014 55.5972 11.9792 56.566 10.1493 56.8889C7.56597 57.2118 5.09028 56.3507 3.26042 54.5208C0.03125 51.2917 0.03125 46.125 3.26042 43.0035L17.7917 28.4722C18.5451 27.8264 19.6215 27.8264 20.2674 28.4722C20.9132 29.1181 20.9132 30.1944 20.2674 30.8403L5.73611 45.3715C3.69097 47.4167 4.01389 50.9687 6.48958 52.691C8.42708 53.9826 11.0104 53.5521 12.625 51.9375L22.4201 42.1424C23.2812 41.2813 24.5729 41.4965 25.2187 42.5729ZM28.8785 11.3576C28.3403 12.3264 27.0486 12.434 26.2951 11.6806C25.7569 11.1424 25.6493 10.1736 26.0799 9.52778C26.6181 8.45139 27.3715 7.48264 28.3403 6.62153C32.4306 2.53125 38.1354 0.916667 43.7326 2.31597C44.7014 2.53125 45.5625 3.39236 45.7778 4.36111C46.1007 5.4375 45.7778 6.51389 45.0243 7.26736L38.2431 14.1563L38.9965 18.8924L43.7326 19.6458L50.6215 12.7569C51.375 12.0035 52.4514 11.7882 53.5278 12.0035C54.4965 12.3264 55.3576 13.1875 55.5729 14.1563C56.9722 19.7535 55.3576 25.4583 51.2674 29.5486C50.7292 30.1944 50.0833 30.7326 49.4375 31.1632C48.7917 31.7014 47.8229 31.5938 47.1771 30.9479C46.4236 30.3021 46.5312 29.0104 47.2847 28.4722C47.8229 28.0417 48.3611 27.6111 48.8993 27.1806C51.8056 24.1667 53.0972 19.9688 52.4514 15.8785L44.9167 23.3056L35.9826 21.9063L34.5833 12.9722L42.0104 5.4375C41.2569 5.32986 40.5035 5.22222 39.75 5.22222C36.4132 5.22222 33.184 6.62153 30.7083 8.98958C30.0625 9.74306 29.4167 10.4965 28.8785 11.3576ZM7.78125 48.2778C7.78125 47.4167 8.64236 46.6632 9.50347 46.6632C10.2569 46.6632 11.1181 47.5243 11.1181 48.2778C11.1181 49.1389 10.3646 49.8924 9.50347 49.8924C8.53472 49.8924 7.78125 49.2465 7.78125 48.2778ZM55.0347 43.7569C56.434 45.0486 56.434 47.309 54.9271 48.6007L47.7153 55.9201C47.0694 56.566 46.2083 56.8889 45.3472 56.8889C44.3785 56.8889 43.5174 56.566 42.8715 55.7049L29.5243 42.3576C26.5104 39.3438 26.1875 34.8229 28.3403 31.4861L19.191 22.3368H11.3333L1 8.66667L7.88889 1.77778L21.559 12.1111V20.0764L30.816 29.2257C32.2153 28.2569 33.9375 27.8264 35.5521 27.8264C37.8125 27.8264 39.9653 28.6875 41.6875 30.3021L55.0347 43.7569ZM18.1146 19H18.0069V13.8333L8.10417 6.40625L5.52083 8.98958L13.0556 19H18.1146ZM45.3472 53.4444L52.559 46.125L39.2118 32.7778C38.2431 31.809 36.9514 31.2708 35.5521 31.2708C34.1528 31.2708 32.8611 31.809 31.8924 32.7778C30.9236 33.7465 30.3854 35.0382 30.3854 36.4375C30.3854 37.8368 30.9236 39.1285 31.8924 40.0972L45.3472 53.4444Z" fill="#F8CA12"/>
</svg>
